<svg width="40" height="40" viewBox="0 0 40 40" fill="none" xmlns="http://www.w3.org/2000/svg">
<path d="M5 8.33333V31.6667C5 32.5507 5.35119 33.3986 5.97631 34.0237C6.60143 34.6488 7.44928 35 8.33333 35H31.6667C33.5 35 35 33.5 35 31.6667V8.33333C35 6.5 33.5 5 31.6667 5H8.33333C7.44928 5 6.60143 5.35119 5.97631 5.97631C5.35119 6.60143 5 7.44928 5 8.33333ZM25 15C25 17.7667 22.7667 20 20 20C17.2333 20 15 17.7667 15 15C15 12.2333 17.2333 10 20 10C22.7667 10 25 12.2333 25 15ZM10 28.3333C10 25 16.6667 23.1667 20 23.1667C23.3333 23.1667 30 25 30 28.3333V30H10V28.3333Z" fill="#4C5BD4"/>
</svg>
