<svg width="40" height="40" viewBox="0 0 40 40" fill="none" xmlns="http://www.w3.org/2000/svg">
<path d="M34.4008 33.5998H32.0008V11.9998C32.0126 11.8248 31.9655 11.6509 31.8669 11.5059C31.7683 11.3609 31.6239 11.2531 31.4568 11.1998L25.6008 8.7518V33.5998H24.0008V5.5998C24.0008 5.38763 23.9165 5.18415 23.7665 5.03412C23.6164 4.88409 23.413 4.7998 23.2008 4.7998H8.80078C8.58861 4.7998 8.38512 4.88409 8.2351 5.03412C8.08507 5.18415 8.00078 5.38763 8.00078 5.5998V33.5998H5.60078C5.38861 33.5998 5.18513 33.6841 5.0351 33.8341C4.88507 33.9841 4.80078 34.1876 4.80078 34.3998C4.80078 34.612 4.88507 34.8155 5.0351 34.9655C5.18513 35.1155 5.38861 35.1998 5.60078 35.1998H34.4008C34.613 35.1998 34.8164 35.1155 34.9665 34.9655C35.1165 34.8155 35.2008 34.612 35.2008 34.3998C35.2008 34.1876 35.1165 33.9841 34.9665 33.8341C34.8164 33.6841 34.613 33.5998 34.4008 33.5998ZM28.0008 14.3998H29.6008C29.813 14.3998 30.0164 14.4841 30.1665 14.6341C30.3165 14.7841 30.4008 14.9876 30.4008 15.1998C30.3967 15.4107 30.3111 15.6118 30.1619 15.761C30.0128 15.9101 29.8117 15.9957 29.6008 15.9998H28.0008C27.7899 15.9957 27.5888 15.9101 27.4396 15.761C27.2905 15.6118 27.2049 15.4107 27.2008 15.1998C27.2008 14.9876 27.2851 14.7841 27.4351 14.6341C27.5851 14.4841 27.7886 14.3998 28.0008 14.3998ZM28.0008 19.1998H29.6008C29.813 19.1998 30.0164 19.2841 30.1665 19.4341C30.3165 19.5841 30.4008 19.7876 30.4008 19.9998C30.4008 20.212 30.3165 20.4155 30.1665 20.5655C30.0164 20.7155 29.813 20.7998 29.6008 20.7998H28.0008C27.7886 20.7998 27.5851 20.7155 27.4351 20.5655C27.2851 20.4155 27.2008 20.212 27.2008 19.9998C27.2008 19.7876 27.2851 19.5841 27.4351 19.4341C27.5851 19.2841 27.7886 19.1998 28.0008 19.1998ZM28.0008 23.9998H29.6008C29.8117 24.0039 30.0128 24.0895 30.1619 24.2386C30.3111 24.3878 30.3967 24.5889 30.4008 24.7998C30.4008 25.012 30.3165 25.2155 30.1665 25.3655C30.0164 25.5155 29.813 25.5998 29.6008 25.5998H28.0008C27.7886 25.5998 27.5851 25.5155 27.4351 25.3655C27.2851 25.2155 27.2008 25.012 27.2008 24.7998C27.2049 24.5889 27.2905 24.3878 27.4396 24.2386C27.5888 24.0895 27.7899 24.0039 28.0008 23.9998ZM28.0008 28.7998H29.6008C29.813 28.7998 30.0164 28.8841 30.1665 29.0341C30.3165 29.1841 30.4008 29.3876 30.4008 29.5998C30.4008 29.812 30.3165 30.0155 30.1665 30.1655C30.0164 30.3155 29.813 30.3998 29.6008 30.3998H28.0008C27.7886 30.3998 27.5851 30.3155 27.4351 30.1655C27.2851 30.0155 27.2008 29.812 27.2008 29.5998C27.2008 29.3876 27.2851 29.1841 27.4351 29.0341C27.5851 28.8841 27.7886 28.7998 28.0008 28.7998ZM17.6008 9.5998H19.2008C19.413 9.5998 19.6164 9.68409 19.7665 9.83412C19.9165 9.98415 20.0008 10.1876 20.0008 10.3998C20.0008 10.612 19.9165 10.8155 19.7665 10.9655C19.6164 11.1155 19.413 11.1998 19.2008 11.1998H17.6008C17.3886 11.1998 17.1851 11.1155 17.0351 10.9655C16.8851 10.8155 16.8008 10.612 16.8008 10.3998C16.8008 10.1876 16.8851 9.98415 17.0351 9.83412C17.1851 9.68409 17.3886 9.5998 17.6008 9.5998ZM17.6008 14.3998H19.2008C19.413 14.3998 19.6164 14.4841 19.7665 14.6341C19.9165 14.7841 20.0008 14.9876 20.0008 15.1998C20.0008 15.412 19.9165 15.6155 19.7665 15.7655C19.6164 15.9155 19.413 15.9998 19.2008 15.9998H17.6008C17.3886 15.9998 17.1851 15.9155 17.0351 15.7655C16.8851 15.6155 16.8008 15.412 16.8008 15.1998C16.8008 14.9876 16.8851 14.7841 17.0351 14.6341C17.1851 14.4841 17.3886 14.3998 17.6008 14.3998ZM17.6008 19.1998H19.2008C19.413 19.1998 19.6164 19.2841 19.7665 19.4341C19.9165 19.5841 20.0008 19.7876 20.0008 19.9998C20.0008 20.212 19.9165 20.4155 19.7665 20.5655C19.6164 20.7155 19.413 20.7998 19.2008 20.7998H17.6008C17.3886 20.7998 17.1851 20.7155 17.0351 20.5655C16.8851 20.4155 16.8008 20.212 16.8008 19.9998C16.8008 19.7876 16.8851 19.5841 17.0351 19.4341C17.1851 19.2841 17.3886 19.1998 17.6008 19.1998ZM17.6008 23.9998H19.2008C19.413 23.9998 19.6164 24.0841 19.7665 24.2341C19.9165 24.3841 20.0008 24.5876 20.0008 24.7998C20.0008 25.012 19.9165 25.2155 19.7665 25.3655C19.6164 25.5155 19.413 25.5998 19.2008 25.5998H17.6008C17.3886 25.5998 17.1851 25.5155 17.0351 25.3655C16.8851 25.2155 16.8008 25.012 16.8008 24.7998C16.8008 24.5876 16.8851 24.3841 17.0351 24.2341C17.1851 24.0841 17.3886 23.9998 17.6008 23.9998ZM12.7048 9.5998H14.4008C14.613 9.5998 14.8164 9.68409 14.9665 9.83412C15.1165 9.98415 15.2008 10.1876 15.2008 10.3998C15.2008 10.612 15.1165 10.8155 14.9665 10.9655C14.8164 11.1155 14.613 11.1998 14.4008 11.1998H12.8008C12.5886 11.1998 12.3851 11.1155 12.2351 10.9655C12.0851 10.8155 12.0008 10.612 12.0008 10.3998C12.0008 10.1876 12.0851 9.98415 12.2351 9.83412C12.3851 9.68409 12.5886 9.5998 12.8008 9.5998H12.7048ZM12.7048 14.3998H14.4008C14.613 14.3998 14.8164 14.4841 14.9665 14.6341C15.1165 14.7841 15.2008 14.9876 15.2008 15.1998C15.2008 15.412 15.1165 15.6155 14.9665 15.7655C14.8164 15.9155 14.613 15.9998 14.4008 15.9998H12.8008C12.5886 15.9998 12.3851 15.9155 12.2351 15.7655C12.0851 15.6155 12.0008 15.412 12.0008 15.1998C12.0008 14.9876 12.0851 14.7841 12.2351 14.6341C12.3851 14.4841 12.5886 14.3998 12.8008 14.3998H12.7048ZM12.7048 19.1998H14.4008C14.613 19.1998 14.8164 19.2841 14.9665 19.4341C15.1165 19.5841 15.2008 19.7876 15.2008 19.9998C15.2008 20.212 15.1165 20.4155 14.9665 20.5655C14.8164 20.7155 14.613 20.7998 14.4008 20.7998H12.8008C12.5886 20.7998 12.3851 20.7155 12.2351 20.5655C12.0851 20.4155 12.0008 20.212 12.0008 19.9998C12.0008 19.7876 12.0851 19.5841 12.2351 19.4341C12.3851 19.2841 12.5886 19.1998 12.8008 19.1998H12.7048ZM12.7048 23.9998H14.4008C14.613 23.9998 14.8164 24.0841 14.9665 24.2341C15.1165 24.3841 15.2008 24.5876 15.2008 24.7998C15.2008 25.012 15.1165 25.2155 14.9665 25.3655C14.8164 25.5155 14.613 25.5998 14.4008 25.5998H12.8008C12.5886 25.5998 12.3851 25.5155 12.2351 25.3655C12.0851 25.2155 12.0008 25.012 12.0008 24.7998C12.0008 24.5876 12.0851 24.3841 12.2351 24.2341C12.3851 24.0841 12.5886 23.9998 12.8008 23.9998H12.7048ZM16.8008 33.5998V30.3998H15.2008V33.5998H13.6008V29.5518C13.613 29.3481 13.7027 29.1567 13.8514 29.0169C14.0001 28.8771 14.1967 28.7994 14.4008 28.7998H17.6008C17.813 28.7998 18.0164 28.8841 18.1665 29.0341C18.3165 29.1841 18.4008 29.3876 18.4008 29.5998V33.5998H16.8008Z" fill="#4C5BD4"/>
</svg>
